
<svg width="3000" height="2000" xmlns="http://www.w3.org/2000/svg">
 <g>
  <title>Artwork Rights Token Embedded Encoding</title>
  <path d="M 2580 20 H 20 L 20 40.0 L 100 40.0 L 100 60 L 180 60 L 180 40.0 L 260 40.0 L 260 60 L 340 60 L 340 40.0 L 420 40.0 L 420 60 L 500 60 L 500 40.0 L 580 40.0 L 580 60 L 660 60 L 660 40.0 L 740 40.0 L 740 60 L 820 60 L 820 40.0 L 900 40.0 L 900 60 L 980 60 L 980 40.0 L 1060 40.0 L 1060 60 L 1140 60 L 1140 40.0 L 1220 40.0 L 1220 60 L 1300 60 L 1300 40.0 L 1380 40.0 L 1380 60 L 1460 60 L 1460 40.0 L 1540 40.0 L 1540 60 L 1620 60 L 1620 40.0 L 1700 40.0 L 1700 60 L 1780 60 L 1780 40.0 L 1860 40.0 L 1860 60 L 1940 60 L 1940 40.0 L 2020 40.0 L 2020 60 L 2100 60 L 2100 40.0 L 2180 40.0 L 2180 60 L 2260 60 L 2260 40.0 L 2340 40.0 L 2340 60 L 2420 60 L 2420 40.0 L 2500 40.0 L 2500 60 L 2580 60 2580 20" fill="transparent" stroke="#FF0000"/><path d="M 2580 100 H 20 L 20 120.0 L 100 120.0 L 100 140 L 180 140 L 180 140 L 260 140 L 260 120.0 L 340 120.0 L 340 120.0 L 420 120.0 L 420 140 L 500 140 L 500 140 L 580 140 L 580 120.0 L 660 120.0 L 660 120.0 L 740 120.0 L 740 140 L 820 140 L 820 140 L 900 140 L 900 120.0 L 980 120.0 L 980 120.0 L 1060 120.0 L 1060 140 L 1140 140 L 1140 120.0 L 1220 120.0 L 1220 140 L 1300 140 L 1300 120.0 L 1380 120.0 L 1380 140 L 1460 140 L 1460 120.0 L 1540 120.0 L 1540 140 L 1620 140 L 1620 120.0 L 1700 120.0 L 1700 140 L 1780 140 L 1780 140 L 1860 140 L 1860 120.0 L 1940 120.0 L 1940 120.0 L 2020 120.0 L 2020 140 L 2100 140 L 2100 120.0 L 2180 120.0 L 2180 140 L 2260 140 L 2260 120.0 L 2340 120.0 L 2340 140 L 2420 140 L 2420 120.0 L 2500 120.0 L 2500 140 L 2580 140 2580 100" fill="transparent" stroke="#FF0000"/><path d="M 2580 180 H 20 L 20 200.0 L 100 200.0 L 100 220 L 180 220 L 180 220 L 260 220 L 260 200.0 L 340 200.0 L 340 200.0 L 420 200.0 L 420 220 L 500 220 L 500 200.0 L 580 200.0 L 580 220 L 660 220 L 660 200.0 L 740 200.0 L 740 220 L 820 220 L 820 200.0 L 900 200.0 L 900 220 L 980 220 L 980 220 L 1060 220 L 1060 200.0 L 1140 200.0 L 1140 220 L 1220 220 L 1220 200.0 L 1300 200.0 L 1300 200.0 L 1380 200.0 L 1380 220 L 1460 220 L 1460 220 L 1540 220 L 1540 200.0 L 1620 200.0 L 1620 220 L 1700 220 L 1700 200.0 L 1780 200.0 L 1780 200.0 L 1860 200.0 L 1860 220 L 1940 220 L 1940 200.0 L 2020 200.0 L 2020 220 L 2100 220 L 2100 200.0 L 2180 200.0 L 2180 220 L 2260 220 L 2260 200.0 L 2340 200.0 L 2340 220 L 2420 220 L 2420 200.0 L 2500 200.0 L 2500 220 L 2580 220 2580 180" fill="transparent" stroke="#FF0000"/><path d="M 2580 260 H 20 L 20 280.0 L 100 280.0 L 100 300 L 180 300 L 180 280.0 L 260 280.0 L 260 300 L 340 300 L 340 300 L 420 300 L 420 280.0 L 500 280.0 L 500 280.0 L 580 280.0 L 580 300 L 660 300 L 660 300 L 740 300 L 740 280.0 L 820 280.0 L 820 300 L 900 300 L 900 280.0 L 980 280.0 L 980 280.0 L 1060 280.0 L 1060 300 L 1140 300 L 1140 300 L 1220 300 L 1220 280.0 L 1300 280.0 L 1300 280.0 L 1380 280.0 L 1380 300 L 1460 300 L 1460 280.0 L 1540 280.0 L 1540 300 L 1620 300 L 1620 280.0 L 1700 280.0 L 1700 300 L 1780 300 L 1780 280.0 L 1860 280.0 L 1860 300 L 1940 300 L 1940 280.0 L 2020 280.0 L 2020 300 L 2100 300 L 2100 300 L 2180 300 L 2180 280.0 L 2260 280.0 L 2260 300 L 2340 300 L 2340 280.0 L 2420 280.0 L 2420 300 L 2500 300 L 2500 280.0 L 2580 280.0 2580 260" fill="transparent" stroke="#FF0000"/><path d="M 2580 340 H 20 L 20 380 L 100 380 L 100 360.0 L 180 360.0 L 180 380 L 260 380 L 260 360.0 L 340 360.0 L 340 380 L 420 380 L 420 360.0 L 500 360.0 L 500 380 L 580 380 L 580 360.0 L 660 360.0 L 660 380 L 740 380 L 740 360.0 L 820 360.0 L 820 360.0 L 900 360.0 L 900 380 L 980 380 L 980 360.0 L 1060 360.0 L 1060 380 L 1140 380 L 1140 380 L 1220 380 L 1220 360.0 L 1300 360.0 L 1300 380 L 1380 380 L 1380 360.0 L 1460 360.0 L 1460 380 L 1540 380 L 1540 360.0 L 1620 360.0 L 1620 380 L 1700 380 L 1700 360.0 L 1780 360.0 L 1780 380 L 1860 380 L 1860 360.0 L 1940 360.0 L 1940 380 L 2020 380 L 2020 360.0 L 2100 360.0 L 2100 360.0 L 2180 360.0 L 2180 380 L 2260 380 L 2260 360.0 L 2340 360.0 L 2340 380 L 2420 380 L 2420 380 L 2500 380 L 2500 360.0 L 2580 360.0 2580 340" fill="transparent" stroke="#FF0000"/><path d="M 2580 420 H 20 L 20 460 L 100 460 L 100 440.0 L 180 440.0 L 180 440.0 L 260 440.0 L 260 460 L 340 460 L 340 460 L 420 460 L 420 440.0 L 500 440.0 L 500 440.0 L 580 440.0 L 580 460 L 660 460 L 660 440.0 L 740 440.0 L 740 460 L 820 460 L 820 460 L 900 460 L 900 440.0 L 980 440.0 L 980 440.0 L 1060 440.0 L 1060 460 L 1140 460 L 1140 440.0 L 1220 440.0 L 1220 460 L 1300 460 L 1300 460 L 1380 460 L 1380 440.0 L 1460 440.0 L 1460 440.0 L 1540 440.0 L 1540 460 L 1620 460 L 1620 460 L 1700 460 L 1700 440.0 L 1780 440.0 L 1780 460 L 1860 460 L 1860 440.0 L 1940 440.0 L 1940 440.0 L 2020 440.0 L 2020 460 L 2100 460 L 2100 440.0 L 2180 440.0 L 2180 460 L 2260 460 L 2260 440.0 L 2340 440.0 L 2340 460 L 2420 460 L 2420 440.0 L 2500 440.0 L 2500 460 L 2580 460 2580 420" fill="transparent" stroke="#FF0000"/><path d="M 2580 500 H 20 L 20 540 L 100 540 L 100 520.0 L 180 520.0 L 180 540 L 260 540 L 260 520.0 L 340 520.0 L 340 520.0 L 420 520.0 L 420 540 L 500 540 L 500 520.0 L 580 520.0 L 580 540 L 660 540 L 660 520.0 L 740 520.0 L 740 540 L 820 540 L 820 520.0 L 900 520.0 L 900 540 L 980 540 L 980 540 L 1060 540 L 1060 520.0 L 1140 520.0 L 1140 540 L 1220 540 L 1220 520.0 L 1300 520.0 L 1300 540 L 1380 540 L 1380 520.0 L 1460 520.0 L 1460 540 L 1540 540 L 1540 520.0 L 1620 520.0 L 1620 520.0 L 1700 520.0 L 1700 540 L 1780 540 L 1780 540 L 1860 540 L 1860 520.0 L 1940 520.0 L 1940 540 L 2020 540 L 2020 520.0 L 2100 520.0 L 2100 540 L 2180 540 L 2180 520.0 L 2260 520.0 L 2260 520.0 L 2340 520.0 L 2340 540 L 2420 540 L 2420 520.0 L 2500 520.0 L 2500 540 L 2580 540 2580 500" fill="transparent" stroke="#FF0000"/><path d="M 2580 580 H 20 L 20 620 L 100 620 L 100 600.0 L 180 600.0 L 180 600.0 L 260 600.0 L 260 620 L 340 620 L 340 600.0 L 420 600.0 L 420 620 L 500 620 L 500 600.0 L 580 600.0 L 580 620 L 660 620 L 660 600.0 L 740 600.0 L 740 620 L 820 620 L 820 600.0 L 900 600.0 L 900 620 L 980 620 L 980 620 L 1060 620 L 1060 600.0 L 1140 600.0 L 1140 600.0 L 1220 600.0 L 1220 620 L 1300 620 L 1300 620 L 1380 620 L 1380 600.0 L 1460 600.0 L 1460 600.0 L 1540 600.0 L 1540 620 L 1620 620 L 1620 620 L 1700 620 L 1700 600.0 L 1780 600.0 L 1780 620 L 1860 620 L 1860 600.0 L 1940 600.0 L 1940 600.0 L 2020 600.0 L 2020 620 L 2100 620 L 2100 620 L 2180 620 L 2180 600.0 L 2260 600.0 L 2260 600.0 L 2340 600.0 L 2340 620 L 2420 620 L 2420 600.0 L 2500 600.0 L 2500 620 L 2580 620 2580 580" fill="transparent" stroke="#FF0000"/><path d="M 2580 660 H 20 L 20 700 L 100 700 L 100 680.0 L 180 680.0 L 180 680.0 L 260 680.0 L 260 700 L 340 700 L 340 700 L 420 700 L 420 680.0 L 500 680.0 L 500 680.0 L 580 680.0 L 580 700 L 660 700 L 660 680.0 L 740 680.0 L 740 700 L 820 700 L 820 700 L 900 700 L 900 680.0 L 980 680.0 L 980 700 L 1060 700 L 1060 680.0 L 1140 680.0 L 1140 680.0 L 1220 680.0 L 1220 700 L 1300 700 L 1300 680.0 L 1380 680.0 L 1380 700 L 1460 700 L 1460 680.0 L 1540 680.0 L 1540 700 L 1620 700 L 1620 700 L 1700 700 L 1700 680.0 L 1780 680.0 L 1780 680.0 L 1860 680.0 L 1860 700 L 1940 700 L 1940 680.0 L 2020 680.0 L 2020 700 L 2100 700 L 2100 700 L 2180 700 L 2180 680.0 L 2260 680.0 L 2260 700 L 2340 700 L 2340 680.0 L 2420 680.0 L 2420 680.0 L 2500 680.0 L 2500 700 L 2580 700 2580 660" fill="transparent" stroke="#FF0000"/><path d="M 2580 740 H 20 L 20 760.0 L 100 760.0 L 100 780 L 180 780 L 180 780 L 260 780 L 260 760.0 L 340 760.0 L 340 760.0 L 420 760.0 L 420 780 L 500 780 L 500 780 L 580 780 L 580 760.0 L 660 760.0 L 660 760.0 L 740 760.0 L 740 780 L 820 780 L 820 780 L 900 780 L 900 760.0 L 980 760.0 L 980 780 L 1060 780 L 1060 760.0 L 1140 760.0 L 1140 760.0 L 1220 760.0 L 1220 780 L 1300 780 L 1300 780 L 1380 780 L 1380 760.0 L 1460 760.0 L 1460 760.0 L 1540 760.0 L 1540 780 L 1620 780 L 1620 760.0 L 1700 760.0 L 1700 780 L 1780 780 L 1780 760.0 L 1860 760.0 L 1860 780 L 1940 780 L 1940 760.0 L 2020 760.0 L 2020 780 L 2100 780 L 2100 780 L 2180 780 L 2180 760.0 L 2260 760.0 L 2260 760.0 L 2340 760.0 L 2340 780 L 2420 780 L 2420 760.0 L 2500 760.0 L 2500 780 L 2580 780 2580 740" fill="transparent" stroke="#FF0000"/><path d="M 2580 820 H 20 L 20 840.0 L 100 840.0 L 100 860 L 180 860 L 180 840.0 L 260 840.0 L 260 860 L 340 860 L 340 860 L 420 860 L 420 840.0 L 500 840.0 L 500 860 L 580 860 L 580 840.0 L 660 840.0 L 660 840.0 L 740 840.0 L 740 860 L 820 860 L 820 860 L 900 860 L 900 840.0 L 980 840.0 L 980 840.0 L 1060 840.0 L 1060 860 L 1140 860 L 1140 860 L 1220 860 L 1220 840.0 L 1300 840.0 L 1300 840.0 L 1380 840.0 L 1380 860 L 1460 860 L 1460 840.0 L 1540 840.0 L 1540 860 L 1620 860 L 1620 860 L 1700 860 L 1700 840.0 L 1780 840.0 L 1780 860 L 1860 860 L 1860 840.0 L 1940 840.0 L 1940 860 L 2020 860 L 2020 840.0 L 2100 840.0 L 2100 840.0 L 2180 840.0 L 2180 860 L 2260 860 L 2260 840.0 L 2340 840.0 L 2340 860 L 2420 860 L 2420 840.0 L 2500 840.0 L 2500 860 L 2580 860 2580 820" fill="transparent" stroke="#FF0000"/><path d="M 2580 900 H 20 L 20 940 L 100 940 L 100 920.0 L 180 920.0 L 180 940 L 260 940 L 260 920.0 L 340 920.0 L 340 940 L 420 940 L 420 920.0 L 500 920.0 L 500 940 L 580 940 L 580 920.0 L 660 920.0 L 660 940 L 740 940 L 740 920.0 L 820 920.0 L 820 940 L 900 940 L 900 920.0 L 980 920.0 L 980 940 L 1060 940 L 1060 920.0 L 1140 920.0 L 1140 940 L 1220 940 L 1220 920.0 L 1300 920.0 L 1300 940 L 1380 940 L 1380 920.0 L 1460 920.0 L 1460 940 L 1540 940 L 1540 920.0 L 1620 920.0 L 1620 940 L 1700 940 L 1700 920.0 L 1780 920.0 L 1780 940 L 1860 940 L 1860 920.0 L 1940 920.0 L 1940 940 L 2020 940 L 2020 920.0 L 2100 920.0 L 2100 940 L 2180 940 L 2180 920.0 L 2260 920.0 L 2260 940 L 2340 940 L 2340 920.0 L 2420 920.0 L 2420 940 L 2500 940 L 2500 920.0 L 2580 920.0 2580 900" fill="transparent" stroke="#FF0000"/>
 </g>
</svg>
    
