
<svg width="3000" height="2000" xmlns="http://www.w3.org/2000/svg">
 <g>
  <title>Artwork Rights Token Embedded Encoding</title>
  <path d="M 1300 20 H 20 L 20 40.0 L 60 40.0 L 60 60 L 100 60 L 100 40.0 L 140 40.0 L 140 60 L 180 60 L 180 40.0 L 220 40.0 L 220 60 L 260 60 L 260 40.0 L 300 40.0 L 300 60 L 340 60 L 340 40.0 L 380 40.0 L 380 60 L 420 60 L 420 40.0 L 460 40.0 L 460 60 L 500 60 L 500 40.0 L 540 40.0 L 540 60 L 580 60 L 580 40.0 L 620 40.0 L 620 60 L 660 60 L 660 40.0 L 700 40.0 L 700 60 L 740 60 L 740 40.0 L 780 40.0 L 780 60 L 820 60 L 820 40.0 L 860 40.0 L 860 60 L 900 60 L 900 40.0 L 940 40.0 L 940 60 L 980 60 L 980 40.0 L 1020 40.0 L 1020 60 L 1060 60 L 1060 40.0 L 1100 40.0 L 1100 60 L 1140 60 L 1140 40.0 L 1180 40.0 L 1180 60 L 1220 60 L 1220 40.0 L 1260 40.0 L 1260 60 L 1300 60 1300 20" fill="transparent" stroke="#FF0000"/>
<path d="M 1300 100 H 20 L 20 120.0 L 60 120.0 L 60 140 L 100 140 L 100 140 L 140 140 L 140 120.0 L 180 120.0 L 180 120.0 L 220 120.0 L 220 140 L 260 140 L 260 140 L 300 140 L 300 120.0 L 340 120.0 L 340 120.0 L 380 120.0 L 380 140 L 420 140 L 420 140 L 460 140 L 460 120.0 L 500 120.0 L 500 120.0 L 540 120.0 L 540 140 L 580 140 L 580 120.0 L 620 120.0 L 620 140 L 660 140 L 660 120.0 L 700 120.0 L 700 140 L 740 140 L 740 120.0 L 780 120.0 L 780 140 L 820 140 L 820 120.0 L 860 120.0 L 860 140 L 900 140 L 900 140 L 940 140 L 940 120.0 L 980 120.0 L 980 120.0 L 1020 120.0 L 1020 140 L 1060 140 L 1060 120.0 L 1100 120.0 L 1100 140 L 1140 140 L 1140 120.0 L 1180 120.0 L 1180 140 L 1220 140 L 1220 120.0 L 1260 120.0 L 1260 140 L 1300 140 1300 100" fill="transparent" stroke="#FF0000"/>
<path d="M 1300 180 H 20 L 20 200.0 L 60 200.0 L 60 220 L 100 220 L 100 220 L 140 220 L 140 200.0 L 180 200.0 L 180 200.0 L 220 200.0 L 220 220 L 260 220 L 260 200.0 L 300 200.0 L 300 220 L 340 220 L 340 200.0 L 380 200.0 L 380 220 L 420 220 L 420 200.0 L 460 200.0 L 460 220 L 500 220 L 500 220 L 540 220 L 540 200.0 L 580 200.0 L 580 220 L 620 220 L 620 200.0 L 660 200.0 L 660 200.0 L 700 200.0 L 700 220 L 740 220 L 740 220 L 780 220 L 780 200.0 L 820 200.0 L 820 220 L 860 220 L 860 200.0 L 900 200.0 L 900 200.0 L 940 200.0 L 940 220 L 980 220 L 980 200.0 L 1020 200.0 L 1020 220 L 1060 220 L 1060 200.0 L 1100 200.0 L 1100 220 L 1140 220 L 1140 200.0 L 1180 200.0 L 1180 220 L 1220 220 L 1220 200.0 L 1260 200.0 L 1260 220 L 1300 220 1300 180" fill="transparent" stroke="#FF0000"/>
<path d="M 1300 260 H 20 L 20 280.0 L 60 280.0 L 60 300 L 100 300 L 100 280.0 L 140 280.0 L 140 300 L 180 300 L 180 300 L 220 300 L 220 280.0 L 260 280.0 L 260 280.0 L 300 280.0 L 300 300 L 340 300 L 340 300 L 380 300 L 380 280.0 L 420 280.0 L 420 300 L 460 300 L 460 280.0 L 500 280.0 L 500 280.0 L 540 280.0 L 540 300 L 580 300 L 580 300 L 620 300 L 620 280.0 L 660 280.0 L 660 280.0 L 700 280.0 L 700 300 L 740 300 L 740 280.0 L 780 280.0 L 780 300 L 820 300 L 820 280.0 L 860 280.0 L 860 300 L 900 300 L 900 280.0 L 940 280.0 L 940 300 L 980 300 L 980 280.0 L 1020 280.0 L 1020 300 L 1060 300 L 1060 300 L 1100 300 L 1100 280.0 L 1140 280.0 L 1140 300 L 1180 300 L 1180 280.0 L 1220 280.0 L 1220 300 L 1260 300 L 1260 280.0 L 1300 280.0 1300 260" fill="transparent" stroke="#FF0000"/>
<path d="M 1300 340 H 20 L 20 380 L 60 380 L 60 360.0 L 100 360.0 L 100 380 L 140 380 L 140 360.0 L 180 360.0 L 180 380 L 220 380 L 220 360.0 L 260 360.0 L 260 380 L 300 380 L 300 360.0 L 340 360.0 L 340 380 L 380 380 L 380 360.0 L 420 360.0 L 420 360.0 L 460 360.0 L 460 380 L 500 380 L 500 360.0 L 540 360.0 L 540 380 L 580 380 L 580 380 L 620 380 L 620 360.0 L 660 360.0 L 660 380 L 700 380 L 700 360.0 L 740 360.0 L 740 380 L 780 380 L 780 360.0 L 820 360.0 L 820 380 L 860 380 L 860 360.0 L 900 360.0 L 900 380 L 940 380 L 940 360.0 L 980 360.0 L 980 380 L 1020 380 L 1020 360.0 L 1060 360.0 L 1060 360.0 L 1100 360.0 L 1100 380 L 1140 380 L 1140 360.0 L 1180 360.0 L 1180 380 L 1220 380 L 1220 380 L 1260 380 L 1260 360.0 L 1300 360.0 1300 340" fill="transparent" stroke="#FF0000"/>
<path d="M 1300 420 H 20 L 20 460 L 60 460 L 60 440.0 L 100 440.0 L 100 440.0 L 140 440.0 L 140 460 L 180 460 L 180 460 L 220 460 L 220 440.0 L 260 440.0 L 260 440.0 L 300 440.0 L 300 460 L 340 460 L 340 440.0 L 380 440.0 L 380 460 L 420 460 L 420 460 L 460 460 L 460 440.0 L 500 440.0 L 500 440.0 L 540 440.0 L 540 460 L 580 460 L 580 440.0 L 620 440.0 L 620 460 L 660 460 L 660 460 L 700 460 L 700 440.0 L 740 440.0 L 740 440.0 L 780 440.0 L 780 460 L 820 460 L 820 460 L 860 460 L 860 440.0 L 900 440.0 L 900 460 L 940 460 L 940 440.0 L 980 440.0 L 980 440.0 L 1020 440.0 L 1020 460 L 1060 460 L 1060 440.0 L 1100 440.0 L 1100 460 L 1140 460 L 1140 440.0 L 1180 440.0 L 1180 460 L 1220 460 L 1220 440.0 L 1260 440.0 L 1260 460 L 1300 460 1300 420" fill="transparent" stroke="#FF0000"/>
<path d="M 1300 500 H 20 L 20 540 L 60 540 L 60 520.0 L 100 520.0 L 100 540 L 140 540 L 140 520.0 L 180 520.0 L 180 520.0 L 220 520.0 L 220 540 L 260 540 L 260 520.0 L 300 520.0 L 300 540 L 340 540 L 340 520.0 L 380 520.0 L 380 540 L 420 540 L 420 520.0 L 460 520.0 L 460 540 L 500 540 L 500 540 L 540 540 L 540 520.0 L 580 520.0 L 580 540 L 620 540 L 620 520.0 L 660 520.0 L 660 540 L 700 540 L 700 520.0 L 740 520.0 L 740 540 L 780 540 L 780 520.0 L 820 520.0 L 820 520.0 L 860 520.0 L 860 540 L 900 540 L 900 540 L 940 540 L 940 520.0 L 980 520.0 L 980 540 L 1020 540 L 1020 520.0 L 1060 520.0 L 1060 540 L 1100 540 L 1100 520.0 L 1140 520.0 L 1140 520.0 L 1180 520.0 L 1180 540 L 1220 540 L 1220 520.0 L 1260 520.0 L 1260 540 L 1300 540 1300 500" fill="transparent" stroke="#FF0000"/>
<path d="M 1300 580 H 20 L 20 620 L 60 620 L 60 600.0 L 100 600.0 L 100 600.0 L 140 600.0 L 140 620 L 180 620 L 180 600.0 L 220 600.0 L 220 620 L 260 620 L 260 600.0 L 300 600.0 L 300 620 L 340 620 L 340 600.0 L 380 600.0 L 380 620 L 420 620 L 420 600.0 L 460 600.0 L 460 620 L 500 620 L 500 620 L 540 620 L 540 600.0 L 580 600.0 L 580 600.0 L 620 600.0 L 620 620 L 660 620 L 660 620 L 700 620 L 700 600.0 L 740 600.0 L 740 600.0 L 780 600.0 L 780 620 L 820 620 L 820 620 L 860 620 L 860 600.0 L 900 600.0 L 900 620 L 940 620 L 940 600.0 L 980 600.0 L 980 600.0 L 1020 600.0 L 1020 620 L 1060 620 L 1060 620 L 1100 620 L 1100 600.0 L 1140 600.0 L 1140 600.0 L 1180 600.0 L 1180 620 L 1220 620 L 1220 600.0 L 1260 600.0 L 1260 620 L 1300 620 1300 580" fill="transparent" stroke="#FF0000"/>
<path d="M 1300 660 H 20 L 20 700 L 60 700 L 60 680.0 L 100 680.0 L 100 680.0 L 140 680.0 L 140 700 L 180 700 L 180 700 L 220 700 L 220 680.0 L 260 680.0 L 260 680.0 L 300 680.0 L 300 700 L 340 700 L 340 680.0 L 380 680.0 L 380 700 L 420 700 L 420 700 L 460 700 L 460 680.0 L 500 680.0 L 500 700 L 540 700 L 540 680.0 L 580 680.0 L 580 680.0 L 620 680.0 L 620 700 L 660 700 L 660 680.0 L 700 680.0 L 700 700 L 740 700 L 740 680.0 L 780 680.0 L 780 700 L 820 700 L 820 700 L 860 700 L 860 680.0 L 900 680.0 L 900 680.0 L 940 680.0 L 940 700 L 980 700 L 980 680.0 L 1020 680.0 L 1020 700 L 1060 700 L 1060 700 L 1100 700 L 1100 680.0 L 1140 680.0 L 1140 700 L 1180 700 L 1180 680.0 L 1220 680.0 L 1220 680.0 L 1260 680.0 L 1260 700 L 1300 700 1300 660" fill="transparent" stroke="#FF0000"/>
<path d="M 1300 740 H 20 L 20 760.0 L 60 760.0 L 60 780 L 100 780 L 100 780 L 140 780 L 140 760.0 L 180 760.0 L 180 760.0 L 220 760.0 L 220 780 L 260 780 L 260 780 L 300 780 L 300 760.0 L 340 760.0 L 340 760.0 L 380 760.0 L 380 780 L 420 780 L 420 780 L 460 780 L 460 760.0 L 500 760.0 L 500 780 L 540 780 L 540 760.0 L 580 760.0 L 580 760.0 L 620 760.0 L 620 780 L 660 780 L 660 780 L 700 780 L 700 760.0 L 740 760.0 L 740 760.0 L 780 760.0 L 780 780 L 820 780 L 820 760.0 L 860 760.0 L 860 780 L 900 780 L 900 760.0 L 940 760.0 L 940 780 L 980 780 L 980 760.0 L 1020 760.0 L 1020 780 L 1060 780 L 1060 780 L 1100 780 L 1100 760.0 L 1140 760.0 L 1140 760.0 L 1180 760.0 L 1180 780 L 1220 780 L 1220 760.0 L 1260 760.0 L 1260 780 L 1300 780 1300 740" fill="transparent" stroke="#FF0000"/>
<path d="M 1300 820 H 20 L 20 840.0 L 60 840.0 L 60 860 L 100 860 L 100 840.0 L 140 840.0 L 140 860 L 180 860 L 180 860 L 220 860 L 220 840.0 L 260 840.0 L 260 860 L 300 860 L 300 840.0 L 340 840.0 L 340 840.0 L 380 840.0 L 380 860 L 420 860 L 420 860 L 460 860 L 460 840.0 L 500 840.0 L 500 840.0 L 540 840.0 L 540 860 L 580 860 L 580 860 L 620 860 L 620 840.0 L 660 840.0 L 660 840.0 L 700 840.0 L 700 860 L 740 860 L 740 840.0 L 780 840.0 L 780 860 L 820 860 L 820 860 L 860 860 L 860 840.0 L 900 840.0 L 900 860 L 940 860 L 940 840.0 L 980 840.0 L 980 860 L 1020 860 L 1020 840.0 L 1060 840.0 L 1060 840.0 L 1100 840.0 L 1100 860 L 1140 860 L 1140 840.0 L 1180 840.0 L 1180 860 L 1220 860 L 1220 840.0 L 1260 840.0 L 1260 860 L 1300 860 1300 820" fill="transparent" stroke="#FF0000"/>
<path d="M 1300 900 H 20 L 20 940 L 60 940 L 60 920.0 L 100 920.0 L 100 940 L 140 940 L 140 920.0 L 180 920.0 L 180 940 L 220 940 L 220 920.0 L 260 920.0 L 260 940 L 300 940 L 300 920.0 L 340 920.0 L 340 940 L 380 940 L 380 920.0 L 420 920.0 L 420 940 L 460 940 L 460 920.0 L 500 920.0 L 500 940 L 540 940 L 540 920.0 L 580 920.0 L 580 940 L 620 940 L 620 920.0 L 660 920.0 L 660 940 L 700 940 L 700 920.0 L 740 920.0 L 740 940 L 780 940 L 780 920.0 L 820 920.0 L 820 940 L 860 940 L 860 920.0 L 900 920.0 L 900 940 L 940 940 L 940 920.0 L 980 920.0 L 980 940 L 1020 940 L 1020 920.0 L 1060 920.0 L 1060 940 L 1100 940 L 1100 920.0 L 1140 920.0 L 1140 940 L 1180 940 L 1180 920.0 L 1220 920.0 L 1220 940 L 1260 940 L 1260 920.0 L 1300 920.0 1300 900" fill="transparent" stroke="#FF0000"/>

 </g>
</svg>
    
