
<svg width="3000" height="2000" xmlns="http://www.w3.org/2000/svg">
 <g>
  <title>Artwork Rights Token Embedded Encoding</title>
    <rect id="0" height="40" width="160" y="0" x="160" stroke="#ff0000" fill="#ffffff"/>
  <rect id="1" height="40" width="160" y="0" x="480" stroke="#ff0000" fill="#ffffff"/>
  <rect id="2" height="40" width="160" y="0" x="800" stroke="#ff0000" fill="#ffffff"/>
  <rect id="3" height="40" width="160" y="0" x="1120" stroke="#ff0000" fill="#ffffff"/>
  <rect id="4" height="40" width="160" y="0" x="1440" stroke="#ff0000" fill="#ffffff"/>
  <rect id="5" height="40" width="160" y="0" x="1760" stroke="#ff0000" fill="#ffffff"/>
  <rect id="6" height="40" width="160" y="0" x="2080" stroke="#ff0000" fill="#ffffff"/>
  <rect id="7" height="40" width="160" y="0" x="2400" stroke="#ff0000" fill="#ffffff"/>
  <rect id="8" height="40" width="160" y="0" x="2720" stroke="#ff0000" fill="#ffffff"/>
  <rect id="9" height="40" width="160" y="0" x="3040" stroke="#ff0000" fill="#ffffff"/>
  <rect id="10" height="40" width="160" y="0" x="3360" stroke="#ff0000" fill="#ffffff"/>
  <rect id="11" height="40" width="160" y="0" x="3680" stroke="#ff0000" fill="#ffffff"/>
  <rect id="12" height="40" width="160" y="0" x="4000" stroke="#ff0000" fill="#ffffff"/>
  <rect id="13" height="40" width="160" y="0" x="4320" stroke="#ff0000" fill="#ffffff"/>
  <rect id="14" height="40" width="160" y="0" x="4640" stroke="#ff0000" fill="#ffffff"/>
  <rect id="15" height="40" width="160" y="0" x="4960" stroke="#ff0000" fill="#ffffff"/>
  <rect id="16" height="40" width="160" y="160" x="160" stroke="#ff0000" fill="#ffffff"/>
  <rect id="17" height="40" width="160" y="160" x="320" stroke="#ff0000" fill="#ffffff"/>
  <rect id="18" height="40" width="160" y="160" x="800" stroke="#ff0000" fill="#ffffff"/>
  <rect id="19" height="40" width="160" y="160" x="960" stroke="#ff0000" fill="#ffffff"/>
  <rect id="20" height="40" width="160" y="160" x="1440" stroke="#ff0000" fill="#ffffff"/>
  <rect id="21" height="40" width="160" y="160" x="1600" stroke="#ff0000" fill="#ffffff"/>
  <rect id="22" height="40" width="160" y="160" x="2080" stroke="#ff0000" fill="#ffffff"/>
  <rect id="23" height="40" width="160" y="160" x="2400" stroke="#ff0000" fill="#ffffff"/>
  <rect id="24" height="40" width="160" y="160" x="2720" stroke="#ff0000" fill="#ffffff"/>
  <rect id="25" height="40" width="160" y="160" x="3040" stroke="#ff0000" fill="#ffffff"/>
  <rect id="26" height="40" width="160" y="160" x="3360" stroke="#ff0000" fill="#ffffff"/>
  <rect id="27" height="40" width="160" y="160" x="3520" stroke="#ff0000" fill="#ffffff"/>
  <rect id="28" height="40" width="160" y="160" x="4000" stroke="#ff0000" fill="#ffffff"/>
  <rect id="29" height="40" width="160" y="160" x="4320" stroke="#ff0000" fill="#ffffff"/>
  <rect id="30" height="40" width="160" y="160" x="4640" stroke="#ff0000" fill="#ffffff"/>
  <rect id="31" height="40" width="160" y="160" x="4960" stroke="#ff0000" fill="#ffffff"/>
  <rect id="32" height="40" width="160" y="320" x="160" stroke="#ff0000" fill="#ffffff"/>
  <rect id="33" height="40" width="160" y="320" x="320" stroke="#ff0000" fill="#ffffff"/>
  <rect id="34" height="40" width="160" y="320" x="800" stroke="#ff0000" fill="#ffffff"/>
  <rect id="35" height="40" width="160" y="320" x="1120" stroke="#ff0000" fill="#ffffff"/>
  <rect id="36" height="40" width="160" y="320" x="1440" stroke="#ff0000" fill="#ffffff"/>
  <rect id="37" height="40" width="160" y="320" x="1760" stroke="#ff0000" fill="#ffffff"/>
  <rect id="38" height="40" width="160" y="320" x="1920" stroke="#ff0000" fill="#ffffff"/>
  <rect id="39" height="40" width="160" y="320" x="2240" stroke="#ff0000" fill="#ffffff"/>
  <rect id="40" height="40" width="160" y="320" x="2720" stroke="#ff0000" fill="#ffffff"/>
  <rect id="41" height="40" width="160" y="320" x="2880" stroke="#ff0000" fill="#ffffff"/>
  <rect id="42" height="40" width="160" y="320" x="3200" stroke="#ff0000" fill="#ffffff"/>
  <rect id="43" height="40" width="160" y="320" x="3680" stroke="#ff0000" fill="#ffffff"/>
  <rect id="44" height="40" width="160" y="320" x="4000" stroke="#ff0000" fill="#ffffff"/>
  <rect id="45" height="40" width="160" y="320" x="4320" stroke="#ff0000" fill="#ffffff"/>
  <rect id="46" height="40" width="160" y="320" x="4640" stroke="#ff0000" fill="#ffffff"/>
  <rect id="47" height="40" width="160" y="320" x="4960" stroke="#ff0000" fill="#ffffff"/>
  <rect id="48" height="40" width="160" y="480" x="160" stroke="#ff0000" fill="#ffffff"/>
  <rect id="49" height="40" width="160" y="480" x="480" stroke="#ff0000" fill="#ffffff"/>
  <rect id="50" height="40" width="160" y="480" x="640" stroke="#ff0000" fill="#ffffff"/>
  <rect id="51" height="40" width="160" y="480" x="1120" stroke="#ff0000" fill="#ffffff"/>
  <rect id="52" height="40" width="160" y="480" x="1280" stroke="#ff0000" fill="#ffffff"/>
  <rect id="53" height="40" width="160" y="480" x="1600" stroke="#ff0000" fill="#ffffff"/>
  <rect id="54" height="40" width="160" y="480" x="2080" stroke="#ff0000" fill="#ffffff"/>
  <rect id="55" height="40" width="160" y="480" x="2240" stroke="#ff0000" fill="#ffffff"/>
  <rect id="56" height="40" width="160" y="480" x="2720" stroke="#ff0000" fill="#ffffff"/>
  <rect id="57" height="40" width="160" y="480" x="3040" stroke="#ff0000" fill="#ffffff"/>
  <rect id="58" height="40" width="160" y="480" x="3360" stroke="#ff0000" fill="#ffffff"/>
  <rect id="59" height="40" width="160" y="480" x="3680" stroke="#ff0000" fill="#ffffff"/>
  <rect id="60" height="40" width="160" y="480" x="4000" stroke="#ff0000" fill="#ffffff"/>
  <rect id="61" height="40" width="160" y="480" x="4160" stroke="#ff0000" fill="#ffffff"/>
  <rect id="62" height="40" width="160" y="480" x="4480" stroke="#ff0000" fill="#ffffff"/>
  <rect id="63" height="40" width="160" y="480" x="4800" stroke="#ff0000" fill="#ffffff"/>
  <rect id="64" height="40" width="160" y="640" x="0" stroke="#ff0000" fill="#ffffff"/>
  <rect id="65" height="40" width="160" y="640" x="320" stroke="#ff0000" fill="#ffffff"/>
  <rect id="66" height="40" width="160" y="640" x="640" stroke="#ff0000" fill="#ffffff"/>
  <rect id="67" height="40" width="160" y="640" x="960" stroke="#ff0000" fill="#ffffff"/>
  <rect id="68" height="40" width="160" y="640" x="1280" stroke="#ff0000" fill="#ffffff"/>
  <rect id="69" height="40" width="160" y="640" x="1760" stroke="#ff0000" fill="#ffffff"/>
  <rect id="70" height="40" width="160" y="640" x="2080" stroke="#ff0000" fill="#ffffff"/>
  <rect id="71" height="40" width="160" y="640" x="2240" stroke="#ff0000" fill="#ffffff"/>
  <rect id="72" height="40" width="160" y="640" x="2560" stroke="#ff0000" fill="#ffffff"/>
  <rect id="73" height="40" width="160" y="640" x="2880" stroke="#ff0000" fill="#ffffff"/>
  <rect id="74" height="40" width="160" y="640" x="3200" stroke="#ff0000" fill="#ffffff"/>
  <rect id="75" height="40" width="160" y="640" x="3520" stroke="#ff0000" fill="#ffffff"/>
  <rect id="76" height="40" width="160" y="640" x="3840" stroke="#ff0000" fill="#ffffff"/>
  <rect id="77" height="40" width="160" y="640" x="4320" stroke="#ff0000" fill="#ffffff"/>
  <rect id="78" height="40" width="160" y="640" x="4640" stroke="#ff0000" fill="#ffffff"/>
  <rect id="79" height="40" width="160" y="640" x="4800" stroke="#ff0000" fill="#ffffff"/>
  <rect id="80" height="40" width="160" y="800" x="0" stroke="#ff0000" fill="#ffffff"/>
  <rect id="81" height="40" width="160" y="800" x="480" stroke="#ff0000" fill="#ffffff"/>
  <rect id="82" height="40" width="160" y="800" x="640" stroke="#ff0000" fill="#ffffff"/>
  <rect id="83" height="40" width="160" y="800" x="1120" stroke="#ff0000" fill="#ffffff"/>
  <rect id="84" height="40" width="160" y="800" x="1440" stroke="#ff0000" fill="#ffffff"/>
  <rect id="85" height="40" width="160" y="800" x="1600" stroke="#ff0000" fill="#ffffff"/>
  <rect id="86" height="40" width="160" y="800" x="2080" stroke="#ff0000" fill="#ffffff"/>
  <rect id="87" height="40" width="160" y="800" x="2400" stroke="#ff0000" fill="#ffffff"/>
  <rect id="88" height="40" width="160" y="800" x="2560" stroke="#ff0000" fill="#ffffff"/>
  <rect id="89" height="40" width="160" y="800" x="3040" stroke="#ff0000" fill="#ffffff"/>
  <rect id="90" height="40" width="160" y="800" x="3200" stroke="#ff0000" fill="#ffffff"/>
  <rect id="91" height="40" width="160" y="800" x="3520" stroke="#ff0000" fill="#ffffff"/>
  <rect id="92" height="40" width="160" y="800" x="4000" stroke="#ff0000" fill="#ffffff"/>
  <rect id="93" height="40" width="160" y="800" x="4320" stroke="#ff0000" fill="#ffffff"/>
  <rect id="94" height="40" width="160" y="800" x="4640" stroke="#ff0000" fill="#ffffff"/>
  <rect id="95" height="40" width="160" y="800" x="4960" stroke="#ff0000" fill="#ffffff"/>
  <rect id="96" height="40" width="160" y="960" x="0" stroke="#ff0000" fill="#ffffff"/>
  <rect id="97" height="40" width="160" y="960" x="320" stroke="#ff0000" fill="#ffffff"/>
  <rect id="98" height="40" width="160" y="960" x="800" stroke="#ff0000" fill="#ffffff"/>
  <rect id="99" height="40" width="160" y="960" x="1120" stroke="#ff0000" fill="#ffffff"/>
  <rect id="100" height="40" width="160" y="960" x="1440" stroke="#ff0000" fill="#ffffff"/>
  <rect id="101" height="40" width="160" y="960" x="1760" stroke="#ff0000" fill="#ffffff"/>
  <rect id="102" height="40" width="160" y="960" x="1920" stroke="#ff0000" fill="#ffffff"/>
  <rect id="103" height="40" width="160" y="960" x="2240" stroke="#ff0000" fill="#ffffff"/>
  <rect id="104" height="40" width="160" y="960" x="2560" stroke="#ff0000" fill="#ffffff"/>
  <rect id="105" height="40" width="160" y="960" x="2880" stroke="#ff0000" fill="#ffffff"/>
  <rect id="106" height="40" width="160" y="960" x="3360" stroke="#ff0000" fill="#ffffff"/>
  <rect id="107" height="40" width="160" y="960" x="3520" stroke="#ff0000" fill="#ffffff"/>
  <rect id="108" height="40" width="160" y="960" x="3840" stroke="#ff0000" fill="#ffffff"/>
  <rect id="109" height="40" width="160" y="960" x="4160" stroke="#ff0000" fill="#ffffff"/>
  <rect id="110" height="40" width="160" y="960" x="4640" stroke="#ff0000" fill="#ffffff"/>
  <rect id="111" height="40" width="160" y="960" x="4960" stroke="#ff0000" fill="#ffffff"/>
  <rect id="112" height="40" width="160" y="1120" x="0" stroke="#ff0000" fill="#ffffff"/>
  <rect id="113" height="40" width="160" y="1120" x="480" stroke="#ff0000" fill="#ffffff"/>
  <rect id="114" height="40" width="160" y="1120" x="800" stroke="#ff0000" fill="#ffffff"/>
  <rect id="115" height="40" width="160" y="1120" x="1120" stroke="#ff0000" fill="#ffffff"/>
  <rect id="116" height="40" width="160" y="1120" x="1440" stroke="#ff0000" fill="#ffffff"/>
  <rect id="117" height="40" width="160" y="1120" x="1760" stroke="#ff0000" fill="#ffffff"/>
  <rect id="118" height="40" width="160" y="1120" x="1920" stroke="#ff0000" fill="#ffffff"/>
  <rect id="119" height="40" width="160" y="1120" x="2400" stroke="#ff0000" fill="#ffffff"/>
  <rect id="120" height="40" width="160" y="1120" x="2560" stroke="#ff0000" fill="#ffffff"/>
  <rect id="121" height="40" width="160" y="1120" x="3040" stroke="#ff0000" fill="#ffffff"/>
  <rect id="122" height="40" width="160" y="1120" x="3200" stroke="#ff0000" fill="#ffffff"/>
  <rect id="123" height="40" width="160" y="1120" x="3520" stroke="#ff0000" fill="#ffffff"/>
  <rect id="124" height="40" width="160" y="1120" x="4000" stroke="#ff0000" fill="#ffffff"/>
  <rect id="125" height="40" width="160" y="1120" x="4160" stroke="#ff0000" fill="#ffffff"/>
  <rect id="126" height="40" width="160" y="1120" x="4640" stroke="#ff0000" fill="#ffffff"/>
  <rect id="127" height="40" width="160" y="1120" x="4960" stroke="#ff0000" fill="#ffffff"/>
  <rect id="128" height="40" width="160" y="1280" x="0" stroke="#ff0000" fill="#ffffff"/>
  <rect id="129" height="40" width="160" y="1280" x="480" stroke="#ff0000" fill="#ffffff"/>
  <rect id="130" height="40" width="160" y="1280" x="640" stroke="#ff0000" fill="#ffffff"/>
  <rect id="131" height="40" width="160" y="1280" x="1120" stroke="#ff0000" fill="#ffffff"/>
  <rect id="132" height="40" width="160" y="1280" x="1440" stroke="#ff0000" fill="#ffffff"/>
  <rect id="133" height="40" width="160" y="1280" x="1600" stroke="#ff0000" fill="#ffffff"/>
  <rect id="134" height="40" width="160" y="1280" x="1920" stroke="#ff0000" fill="#ffffff"/>
  <rect id="135" height="40" width="160" y="1280" x="2400" stroke="#ff0000" fill="#ffffff"/>
  <rect id="136" height="40" width="160" y="1280" x="2720" stroke="#ff0000" fill="#ffffff"/>
  <rect id="137" height="40" width="160" y="1280" x="3040" stroke="#ff0000" fill="#ffffff"/>
  <rect id="138" height="40" width="160" y="1280" x="3200" stroke="#ff0000" fill="#ffffff"/>
  <rect id="139" height="40" width="160" y="1280" x="3680" stroke="#ff0000" fill="#ffffff"/>
  <rect id="140" height="40" width="160" y="1280" x="4000" stroke="#ff0000" fill="#ffffff"/>
  <rect id="141" height="40" width="160" y="1280" x="4160" stroke="#ff0000" fill="#ffffff"/>
  <rect id="142" height="40" width="160" y="1280" x="4480" stroke="#ff0000" fill="#ffffff"/>
  <rect id="143" height="40" width="160" y="1280" x="4960" stroke="#ff0000" fill="#ffffff"/>
  <rect id="144" height="40" width="160" y="1440" x="160" stroke="#ff0000" fill="#ffffff"/>
  <rect id="145" height="40" width="160" y="1440" x="320" stroke="#ff0000" fill="#ffffff"/>
  <rect id="146" height="40" width="160" y="1440" x="800" stroke="#ff0000" fill="#ffffff"/>
  <rect id="147" height="40" width="160" y="1440" x="960" stroke="#ff0000" fill="#ffffff"/>
  <rect id="148" height="40" width="160" y="1440" x="1440" stroke="#ff0000" fill="#ffffff"/>
  <rect id="149" height="40" width="160" y="1440" x="1600" stroke="#ff0000" fill="#ffffff"/>
  <rect id="150" height="40" width="160" y="1440" x="1920" stroke="#ff0000" fill="#ffffff"/>
  <rect id="151" height="40" width="160" y="1440" x="2400" stroke="#ff0000" fill="#ffffff"/>
  <rect id="152" height="40" width="160" y="1440" x="2560" stroke="#ff0000" fill="#ffffff"/>
  <rect id="153" height="40" width="160" y="1440" x="3040" stroke="#ff0000" fill="#ffffff"/>
  <rect id="154" height="40" width="160" y="1440" x="3360" stroke="#ff0000" fill="#ffffff"/>
  <rect id="155" height="40" width="160" y="1440" x="3680" stroke="#ff0000" fill="#ffffff"/>
  <rect id="156" height="40" width="160" y="1440" x="4000" stroke="#ff0000" fill="#ffffff"/>
  <rect id="157" height="40" width="160" y="1440" x="4160" stroke="#ff0000" fill="#ffffff"/>
  <rect id="158" height="40" width="160" y="1440" x="4640" stroke="#ff0000" fill="#ffffff"/>
  <rect id="159" height="40" width="160" y="1440" x="4960" stroke="#ff0000" fill="#ffffff"/>
  <rect id="160" height="40" width="160" y="1600" x="160" stroke="#ff0000" fill="#ffffff"/>
  <rect id="161" height="40" width="160" y="1600" x="480" stroke="#ff0000" fill="#ffffff"/>
  <rect id="162" height="40" width="160" y="1600" x="640" stroke="#ff0000" fill="#ffffff"/>
  <rect id="163" height="40" width="160" y="1600" x="960" stroke="#ff0000" fill="#ffffff"/>
  <rect id="164" height="40" width="160" y="1600" x="1440" stroke="#ff0000" fill="#ffffff"/>
  <rect id="165" height="40" width="160" y="1600" x="1600" stroke="#ff0000" fill="#ffffff"/>
  <rect id="166" height="40" width="160" y="1600" x="2080" stroke="#ff0000" fill="#ffffff"/>
  <rect id="167" height="40" width="160" y="1600" x="2240" stroke="#ff0000" fill="#ffffff"/>
  <rect id="168" height="40" width="160" y="1600" x="2720" stroke="#ff0000" fill="#ffffff"/>
  <rect id="169" height="40" width="160" y="1600" x="3040" stroke="#ff0000" fill="#ffffff"/>
  <rect id="170" height="40" width="160" y="1600" x="3200" stroke="#ff0000" fill="#ffffff"/>
  <rect id="171" height="40" width="160" y="1600" x="3520" stroke="#ff0000" fill="#ffffff"/>
  <rect id="172" height="40" width="160" y="1600" x="3840" stroke="#ff0000" fill="#ffffff"/>
  <rect id="173" height="40" width="160" y="1600" x="4320" stroke="#ff0000" fill="#ffffff"/>
  <rect id="174" height="40" width="160" y="1600" x="4640" stroke="#ff0000" fill="#ffffff"/>
  <rect id="175" height="40" width="160" y="1600" x="4960" stroke="#ff0000" fill="#ffffff"/>
  <rect id="176" height="40" width="160" y="1760" x="160" stroke="#ff0000" fill="#ffffff"/>
  <rect id="177" height="40" width="160" y="1760" x="480" stroke="#ff0000" fill="#ffffff"/>
  <rect id="178" height="40" width="160" y="1760" x="800" stroke="#ff0000" fill="#ffffff"/>
  <rect id="179" height="40" width="160" y="1760" x="1120" stroke="#ff0000" fill="#ffffff"/>
  <rect id="180" height="40" width="160" y="1760" x="1440" stroke="#ff0000" fill="#ffffff"/>
  <rect id="181" height="40" width="160" y="1760" x="1760" stroke="#ff0000" fill="#ffffff"/>
  <rect id="182" height="40" width="160" y="1760" x="2080" stroke="#ff0000" fill="#ffffff"/>
  <rect id="183" height="40" width="160" y="1760" x="2400" stroke="#ff0000" fill="#ffffff"/>
  <rect id="184" height="40" width="160" y="1760" x="2720" stroke="#ff0000" fill="#ffffff"/>
  <rect id="185" height="40" width="160" y="1760" x="3040" stroke="#ff0000" fill="#ffffff"/>
  <rect id="186" height="40" width="160" y="1760" x="3360" stroke="#ff0000" fill="#ffffff"/>
  <rect id="187" height="40" width="160" y="1760" x="3680" stroke="#ff0000" fill="#ffffff"/>
  <rect id="188" height="40" width="160" y="1760" x="4000" stroke="#ff0000" fill="#ffffff"/>
  <rect id="189" height="40" width="160" y="1760" x="4320" stroke="#ff0000" fill="#ffffff"/>
  <rect id="190" height="40" width="160" y="1760" x="4640" stroke="#ff0000" fill="#ffffff"/>
  <rect id="191" height="40" width="160" y="1760" x="4960" stroke="#ff0000" fill="#ffffff"/>

 </g>
</svg>
    
