
<svg width="3000" height="2000" xmlns="http://www.w3.org/2000/svg">
 <g>
  <title>Artwork Rights Token Embedded Encoding</title>
    <rect id="0" height="20" width="80" y="20" x="100" stroke="#ff0000" fill="#ffffff"/>
  <rect id="1" height="20" width="80" y="20" x="260" stroke="#ff0000" fill="#ffffff"/>
  <rect id="2" height="20" width="80" y="20" x="420" stroke="#ff0000" fill="#ffffff"/>
  <rect id="3" height="20" width="80" y="20" x="580" stroke="#ff0000" fill="#ffffff"/>
  <rect id="4" height="20" width="80" y="20" x="740" stroke="#ff0000" fill="#ffffff"/>
  <rect id="5" height="20" width="80" y="20" x="900" stroke="#ff0000" fill="#ffffff"/>
  <rect id="6" height="20" width="80" y="20" x="1060" stroke="#ff0000" fill="#ffffff"/>
  <rect id="7" height="20" width="80" y="20" x="1220" stroke="#ff0000" fill="#ffffff"/>
  <rect id="8" height="20" width="80" y="20" x="1380" stroke="#ff0000" fill="#ffffff"/>
  <rect id="9" height="20" width="80" y="20" x="1540" stroke="#ff0000" fill="#ffffff"/>
  <rect id="10" height="20" width="80" y="20" x="1700" stroke="#ff0000" fill="#ffffff"/>
  <rect id="11" height="20" width="80" y="20" x="1860" stroke="#ff0000" fill="#ffffff"/>
  <rect id="12" height="20" width="80" y="20" x="2020" stroke="#ff0000" fill="#ffffff"/>
  <rect id="13" height="20" width="80" y="20" x="2180" stroke="#ff0000" fill="#ffffff"/>
  <rect id="14" height="20" width="80" y="20" x="2340" stroke="#ff0000" fill="#ffffff"/>
  <rect id="15" height="20" width="80" y="20" x="2500" stroke="#ff0000" fill="#ffffff"/>
  <rect id="16" height="20" width="80" y="100" x="100" stroke="#ff0000" fill="#ffffff"/>
  <rect id="17" height="20" width="80" y="100" x="180" stroke="#ff0000" fill="#ffffff"/>
  <rect id="18" height="20" width="80" y="100" x="420" stroke="#ff0000" fill="#ffffff"/>
  <rect id="19" height="20" width="80" y="100" x="500" stroke="#ff0000" fill="#ffffff"/>
  <rect id="20" height="20" width="80" y="100" x="740" stroke="#ff0000" fill="#ffffff"/>
  <rect id="21" height="20" width="80" y="100" x="820" stroke="#ff0000" fill="#ffffff"/>
  <rect id="22" height="20" width="80" y="100" x="1060" stroke="#ff0000" fill="#ffffff"/>
  <rect id="23" height="20" width="80" y="100" x="1220" stroke="#ff0000" fill="#ffffff"/>
  <rect id="24" height="20" width="80" y="100" x="1380" stroke="#ff0000" fill="#ffffff"/>
  <rect id="25" height="20" width="80" y="100" x="1540" stroke="#ff0000" fill="#ffffff"/>
  <rect id="26" height="20" width="80" y="100" x="1700" stroke="#ff0000" fill="#ffffff"/>
  <rect id="27" height="20" width="80" y="100" x="1780" stroke="#ff0000" fill="#ffffff"/>
  <rect id="28" height="20" width="80" y="100" x="2020" stroke="#ff0000" fill="#ffffff"/>
  <rect id="29" height="20" width="80" y="100" x="2180" stroke="#ff0000" fill="#ffffff"/>
  <rect id="30" height="20" width="80" y="100" x="2340" stroke="#ff0000" fill="#ffffff"/>
  <rect id="31" height="20" width="80" y="100" x="2500" stroke="#ff0000" fill="#ffffff"/>
  <rect id="32" height="20" width="80" y="180" x="100" stroke="#ff0000" fill="#ffffff"/>
  <rect id="33" height="20" width="80" y="180" x="180" stroke="#ff0000" fill="#ffffff"/>
  <rect id="34" height="20" width="80" y="180" x="420" stroke="#ff0000" fill="#ffffff"/>
  <rect id="35" height="20" width="80" y="180" x="580" stroke="#ff0000" fill="#ffffff"/>
  <rect id="36" height="20" width="80" y="180" x="740" stroke="#ff0000" fill="#ffffff"/>
  <rect id="37" height="20" width="80" y="180" x="900" stroke="#ff0000" fill="#ffffff"/>
  <rect id="38" height="20" width="80" y="180" x="980" stroke="#ff0000" fill="#ffffff"/>
  <rect id="39" height="20" width="80" y="180" x="1140" stroke="#ff0000" fill="#ffffff"/>
  <rect id="40" height="20" width="80" y="180" x="1380" stroke="#ff0000" fill="#ffffff"/>
  <rect id="41" height="20" width="80" y="180" x="1460" stroke="#ff0000" fill="#ffffff"/>
  <rect id="42" height="20" width="80" y="180" x="1620" stroke="#ff0000" fill="#ffffff"/>
  <rect id="43" height="20" width="80" y="180" x="1860" stroke="#ff0000" fill="#ffffff"/>
  <rect id="44" height="20" width="80" y="180" x="2020" stroke="#ff0000" fill="#ffffff"/>
  <rect id="45" height="20" width="80" y="180" x="2180" stroke="#ff0000" fill="#ffffff"/>
  <rect id="46" height="20" width="80" y="180" x="2340" stroke="#ff0000" fill="#ffffff"/>
  <rect id="47" height="20" width="80" y="180" x="2500" stroke="#ff0000" fill="#ffffff"/>
  <rect id="48" height="20" width="80" y="260" x="100" stroke="#ff0000" fill="#ffffff"/>
  <rect id="49" height="20" width="80" y="260" x="260" stroke="#ff0000" fill="#ffffff"/>
  <rect id="50" height="20" width="80" y="260" x="340" stroke="#ff0000" fill="#ffffff"/>
  <rect id="51" height="20" width="80" y="260" x="580" stroke="#ff0000" fill="#ffffff"/>
  <rect id="52" height="20" width="80" y="260" x="660" stroke="#ff0000" fill="#ffffff"/>
  <rect id="53" height="20" width="80" y="260" x="820" stroke="#ff0000" fill="#ffffff"/>
  <rect id="54" height="20" width="80" y="260" x="1060" stroke="#ff0000" fill="#ffffff"/>
  <rect id="55" height="20" width="80" y="260" x="1140" stroke="#ff0000" fill="#ffffff"/>
  <rect id="56" height="20" width="80" y="260" x="1380" stroke="#ff0000" fill="#ffffff"/>
  <rect id="57" height="20" width="80" y="260" x="1540" stroke="#ff0000" fill="#ffffff"/>
  <rect id="58" height="20" width="80" y="260" x="1700" stroke="#ff0000" fill="#ffffff"/>
  <rect id="59" height="20" width="80" y="260" x="1860" stroke="#ff0000" fill="#ffffff"/>
  <rect id="60" height="20" width="80" y="260" x="2020" stroke="#ff0000" fill="#ffffff"/>
  <rect id="61" height="20" width="80" y="260" x="2100" stroke="#ff0000" fill="#ffffff"/>
  <rect id="62" height="20" width="80" y="260" x="2260" stroke="#ff0000" fill="#ffffff"/>
  <rect id="63" height="20" width="80" y="260" x="2420" stroke="#ff0000" fill="#ffffff"/>
  <rect id="64" height="20" width="80" y="340" x="20" stroke="#ff0000" fill="#ffffff"/>
  <rect id="65" height="20" width="80" y="340" x="180" stroke="#ff0000" fill="#ffffff"/>
  <rect id="66" height="20" width="80" y="340" x="340" stroke="#ff0000" fill="#ffffff"/>
  <rect id="67" height="20" width="80" y="340" x="500" stroke="#ff0000" fill="#ffffff"/>
  <rect id="68" height="20" width="80" y="340" x="660" stroke="#ff0000" fill="#ffffff"/>
  <rect id="69" height="20" width="80" y="340" x="900" stroke="#ff0000" fill="#ffffff"/>
  <rect id="70" height="20" width="80" y="340" x="1060" stroke="#ff0000" fill="#ffffff"/>
  <rect id="71" height="20" width="80" y="340" x="1140" stroke="#ff0000" fill="#ffffff"/>
  <rect id="72" height="20" width="80" y="340" x="1300" stroke="#ff0000" fill="#ffffff"/>
  <rect id="73" height="20" width="80" y="340" x="1460" stroke="#ff0000" fill="#ffffff"/>
  <rect id="74" height="20" width="80" y="340" x="1620" stroke="#ff0000" fill="#ffffff"/>
  <rect id="75" height="20" width="80" y="340" x="1780" stroke="#ff0000" fill="#ffffff"/>
  <rect id="76" height="20" width="80" y="340" x="1940" stroke="#ff0000" fill="#ffffff"/>
  <rect id="77" height="20" width="80" y="340" x="2180" stroke="#ff0000" fill="#ffffff"/>
  <rect id="78" height="20" width="80" y="340" x="2340" stroke="#ff0000" fill="#ffffff"/>
  <rect id="79" height="20" width="80" y="340" x="2420" stroke="#ff0000" fill="#ffffff"/>
  <rect id="80" height="20" width="80" y="420" x="20" stroke="#ff0000" fill="#ffffff"/>
  <rect id="81" height="20" width="80" y="420" x="260" stroke="#ff0000" fill="#ffffff"/>
  <rect id="82" height="20" width="80" y="420" x="340" stroke="#ff0000" fill="#ffffff"/>
  <rect id="83" height="20" width="80" y="420" x="580" stroke="#ff0000" fill="#ffffff"/>
  <rect id="84" height="20" width="80" y="420" x="740" stroke="#ff0000" fill="#ffffff"/>
  <rect id="85" height="20" width="80" y="420" x="820" stroke="#ff0000" fill="#ffffff"/>
  <rect id="86" height="20" width="80" y="420" x="1060" stroke="#ff0000" fill="#ffffff"/>
  <rect id="87" height="20" width="80" y="420" x="1220" stroke="#ff0000" fill="#ffffff"/>
  <rect id="88" height="20" width="80" y="420" x="1300" stroke="#ff0000" fill="#ffffff"/>
  <rect id="89" height="20" width="80" y="420" x="1540" stroke="#ff0000" fill="#ffffff"/>
  <rect id="90" height="20" width="80" y="420" x="1620" stroke="#ff0000" fill="#ffffff"/>
  <rect id="91" height="20" width="80" y="420" x="1780" stroke="#ff0000" fill="#ffffff"/>
  <rect id="92" height="20" width="80" y="420" x="2020" stroke="#ff0000" fill="#ffffff"/>
  <rect id="93" height="20" width="80" y="420" x="2180" stroke="#ff0000" fill="#ffffff"/>
  <rect id="94" height="20" width="80" y="420" x="2340" stroke="#ff0000" fill="#ffffff"/>
  <rect id="95" height="20" width="80" y="420" x="2500" stroke="#ff0000" fill="#ffffff"/>
  <rect id="96" height="20" width="80" y="500" x="20" stroke="#ff0000" fill="#ffffff"/>
  <rect id="97" height="20" width="80" y="500" x="180" stroke="#ff0000" fill="#ffffff"/>
  <rect id="98" height="20" width="80" y="500" x="420" stroke="#ff0000" fill="#ffffff"/>
  <rect id="99" height="20" width="80" y="500" x="580" stroke="#ff0000" fill="#ffffff"/>
  <rect id="100" height="20" width="80" y="500" x="740" stroke="#ff0000" fill="#ffffff"/>
  <rect id="101" height="20" width="80" y="500" x="900" stroke="#ff0000" fill="#ffffff"/>
  <rect id="102" height="20" width="80" y="500" x="980" stroke="#ff0000" fill="#ffffff"/>
  <rect id="103" height="20" width="80" y="500" x="1140" stroke="#ff0000" fill="#ffffff"/>
  <rect id="104" height="20" width="80" y="500" x="1300" stroke="#ff0000" fill="#ffffff"/>
  <rect id="105" height="20" width="80" y="500" x="1460" stroke="#ff0000" fill="#ffffff"/>
  <rect id="106" height="20" width="80" y="500" x="1700" stroke="#ff0000" fill="#ffffff"/>
  <rect id="107" height="20" width="80" y="500" x="1780" stroke="#ff0000" fill="#ffffff"/>
  <rect id="108" height="20" width="80" y="500" x="1940" stroke="#ff0000" fill="#ffffff"/>
  <rect id="109" height="20" width="80" y="500" x="2100" stroke="#ff0000" fill="#ffffff"/>
  <rect id="110" height="20" width="80" y="500" x="2340" stroke="#ff0000" fill="#ffffff"/>
  <rect id="111" height="20" width="80" y="500" x="2500" stroke="#ff0000" fill="#ffffff"/>
  <rect id="112" height="20" width="80" y="580" x="20" stroke="#ff0000" fill="#ffffff"/>
  <rect id="113" height="20" width="80" y="580" x="260" stroke="#ff0000" fill="#ffffff"/>
  <rect id="114" height="20" width="80" y="580" x="420" stroke="#ff0000" fill="#ffffff"/>
  <rect id="115" height="20" width="80" y="580" x="580" stroke="#ff0000" fill="#ffffff"/>
  <rect id="116" height="20" width="80" y="580" x="740" stroke="#ff0000" fill="#ffffff"/>
  <rect id="117" height="20" width="80" y="580" x="900" stroke="#ff0000" fill="#ffffff"/>
  <rect id="118" height="20" width="80" y="580" x="980" stroke="#ff0000" fill="#ffffff"/>
  <rect id="119" height="20" width="80" y="580" x="1220" stroke="#ff0000" fill="#ffffff"/>
  <rect id="120" height="20" width="80" y="580" x="1300" stroke="#ff0000" fill="#ffffff"/>
  <rect id="121" height="20" width="80" y="580" x="1540" stroke="#ff0000" fill="#ffffff"/>
  <rect id="122" height="20" width="80" y="580" x="1620" stroke="#ff0000" fill="#ffffff"/>
  <rect id="123" height="20" width="80" y="580" x="1780" stroke="#ff0000" fill="#ffffff"/>
  <rect id="124" height="20" width="80" y="580" x="2020" stroke="#ff0000" fill="#ffffff"/>
  <rect id="125" height="20" width="80" y="580" x="2100" stroke="#ff0000" fill="#ffffff"/>
  <rect id="126" height="20" width="80" y="580" x="2340" stroke="#ff0000" fill="#ffffff"/>
  <rect id="127" height="20" width="80" y="580" x="2500" stroke="#ff0000" fill="#ffffff"/>
  <rect id="128" height="20" width="80" y="660" x="20" stroke="#ff0000" fill="#ffffff"/>
  <rect id="129" height="20" width="80" y="660" x="260" stroke="#ff0000" fill="#ffffff"/>
  <rect id="130" height="20" width="80" y="660" x="340" stroke="#ff0000" fill="#ffffff"/>
  <rect id="131" height="20" width="80" y="660" x="580" stroke="#ff0000" fill="#ffffff"/>
  <rect id="132" height="20" width="80" y="660" x="740" stroke="#ff0000" fill="#ffffff"/>
  <rect id="133" height="20" width="80" y="660" x="820" stroke="#ff0000" fill="#ffffff"/>
  <rect id="134" height="20" width="80" y="660" x="980" stroke="#ff0000" fill="#ffffff"/>
  <rect id="135" height="20" width="80" y="660" x="1220" stroke="#ff0000" fill="#ffffff"/>
  <rect id="136" height="20" width="80" y="660" x="1380" stroke="#ff0000" fill="#ffffff"/>
  <rect id="137" height="20" width="80" y="660" x="1540" stroke="#ff0000" fill="#ffffff"/>
  <rect id="138" height="20" width="80" y="660" x="1620" stroke="#ff0000" fill="#ffffff"/>
  <rect id="139" height="20" width="80" y="660" x="1860" stroke="#ff0000" fill="#ffffff"/>
  <rect id="140" height="20" width="80" y="660" x="2020" stroke="#ff0000" fill="#ffffff"/>
  <rect id="141" height="20" width="80" y="660" x="2100" stroke="#ff0000" fill="#ffffff"/>
  <rect id="142" height="20" width="80" y="660" x="2260" stroke="#ff0000" fill="#ffffff"/>
  <rect id="143" height="20" width="80" y="660" x="2500" stroke="#ff0000" fill="#ffffff"/>
  <rect id="144" height="20" width="80" y="740" x="100" stroke="#ff0000" fill="#ffffff"/>
  <rect id="145" height="20" width="80" y="740" x="180" stroke="#ff0000" fill="#ffffff"/>
  <rect id="146" height="20" width="80" y="740" x="420" stroke="#ff0000" fill="#ffffff"/>
  <rect id="147" height="20" width="80" y="740" x="500" stroke="#ff0000" fill="#ffffff"/>
  <rect id="148" height="20" width="80" y="740" x="740" stroke="#ff0000" fill="#ffffff"/>
  <rect id="149" height="20" width="80" y="740" x="820" stroke="#ff0000" fill="#ffffff"/>
  <rect id="150" height="20" width="80" y="740" x="980" stroke="#ff0000" fill="#ffffff"/>
  <rect id="151" height="20" width="80" y="740" x="1220" stroke="#ff0000" fill="#ffffff"/>
  <rect id="152" height="20" width="80" y="740" x="1300" stroke="#ff0000" fill="#ffffff"/>
  <rect id="153" height="20" width="80" y="740" x="1540" stroke="#ff0000" fill="#ffffff"/>
  <rect id="154" height="20" width="80" y="740" x="1700" stroke="#ff0000" fill="#ffffff"/>
  <rect id="155" height="20" width="80" y="740" x="1860" stroke="#ff0000" fill="#ffffff"/>
  <rect id="156" height="20" width="80" y="740" x="2020" stroke="#ff0000" fill="#ffffff"/>
  <rect id="157" height="20" width="80" y="740" x="2100" stroke="#ff0000" fill="#ffffff"/>
  <rect id="158" height="20" width="80" y="740" x="2340" stroke="#ff0000" fill="#ffffff"/>
  <rect id="159" height="20" width="80" y="740" x="2500" stroke="#ff0000" fill="#ffffff"/>
  <rect id="160" height="20" width="80" y="820" x="100" stroke="#ff0000" fill="#ffffff"/>
  <rect id="161" height="20" width="80" y="820" x="260" stroke="#ff0000" fill="#ffffff"/>
  <rect id="162" height="20" width="80" y="820" x="340" stroke="#ff0000" fill="#ffffff"/>
  <rect id="163" height="20" width="80" y="820" x="500" stroke="#ff0000" fill="#ffffff"/>
  <rect id="164" height="20" width="80" y="820" x="740" stroke="#ff0000" fill="#ffffff"/>
  <rect id="165" height="20" width="80" y="820" x="820" stroke="#ff0000" fill="#ffffff"/>
  <rect id="166" height="20" width="80" y="820" x="1060" stroke="#ff0000" fill="#ffffff"/>
  <rect id="167" height="20" width="80" y="820" x="1140" stroke="#ff0000" fill="#ffffff"/>
  <rect id="168" height="20" width="80" y="820" x="1380" stroke="#ff0000" fill="#ffffff"/>
  <rect id="169" height="20" width="80" y="820" x="1540" stroke="#ff0000" fill="#ffffff"/>
  <rect id="170" height="20" width="80" y="820" x="1620" stroke="#ff0000" fill="#ffffff"/>
  <rect id="171" height="20" width="80" y="820" x="1780" stroke="#ff0000" fill="#ffffff"/>
  <rect id="172" height="20" width="80" y="820" x="1940" stroke="#ff0000" fill="#ffffff"/>
  <rect id="173" height="20" width="80" y="820" x="2180" stroke="#ff0000" fill="#ffffff"/>
  <rect id="174" height="20" width="80" y="820" x="2340" stroke="#ff0000" fill="#ffffff"/>
  <rect id="175" height="20" width="80" y="820" x="2500" stroke="#ff0000" fill="#ffffff"/>
  <rect id="176" height="20" width="80" y="900" x="100" stroke="#ff0000" fill="#ffffff"/>
  <rect id="177" height="20" width="80" y="900" x="260" stroke="#ff0000" fill="#ffffff"/>
  <rect id="178" height="20" width="80" y="900" x="420" stroke="#ff0000" fill="#ffffff"/>
  <rect id="179" height="20" width="80" y="900" x="580" stroke="#ff0000" fill="#ffffff"/>
  <rect id="180" height="20" width="80" y="900" x="740" stroke="#ff0000" fill="#ffffff"/>
  <rect id="181" height="20" width="80" y="900" x="900" stroke="#ff0000" fill="#ffffff"/>
  <rect id="182" height="20" width="80" y="900" x="1060" stroke="#ff0000" fill="#ffffff"/>
  <rect id="183" height="20" width="80" y="900" x="1220" stroke="#ff0000" fill="#ffffff"/>
  <rect id="184" height="20" width="80" y="900" x="1380" stroke="#ff0000" fill="#ffffff"/>
  <rect id="185" height="20" width="80" y="900" x="1540" stroke="#ff0000" fill="#ffffff"/>
  <rect id="186" height="20" width="80" y="900" x="1700" stroke="#ff0000" fill="#ffffff"/>
  <rect id="187" height="20" width="80" y="900" x="1860" stroke="#ff0000" fill="#ffffff"/>
  <rect id="188" height="20" width="80" y="900" x="2020" stroke="#ff0000" fill="#ffffff"/>
  <rect id="189" height="20" width="80" y="900" x="2180" stroke="#ff0000" fill="#ffffff"/>
  <rect id="190" height="20" width="80" y="900" x="2340" stroke="#ff0000" fill="#ffffff"/>
  <rect id="191" height="20" width="80" y="900" x="2500" stroke="#ff0000" fill="#ffffff"/>

 </g>
</svg>
    
